<?xml version="1.0" encoding="UTF-8" standalone="no"?>
<!-- Created with Inkscape (http://www.inkscape.org/) -->

<svg
   xmlns:dc="http://purl.org/dc/elements/1.1/"
   xmlns:cc="http://creativecommons.org/ns#"
   xmlns:rdf="http://www.w3.org/1999/02/22-rdf-syntax-ns#"
   xmlns:svg="http://www.w3.org/2000/svg"
   xmlns="http://www.w3.org/2000/svg"
   xmlns:sodipodi="http://sodipodi.sourceforge.net/DTD/sodipodi-0.dtd"
   xmlns:inkscape="http://www.inkscape.org/namespaces/inkscape"
   width="800"
   height="800"
   id="svg2"
   version="1.1"
   inkscape:version="0.48.4 r9939"
   sodipodi:docname="logo.svg"
   inkscape:export-filename="C:\Users\alex\Documents\joy\app\webroot\img\logo64.png"
   inkscape:export-xdpi="7.1999998"
   inkscape:export-ydpi="7.1999998">
  <defs
     id="defs4" />
  <sodipodi:namedview
     id="base"
     pagecolor="#77a800"
     bordercolor="#666666"
     borderopacity="1.0"
     inkscape:pageopacity="1"
     inkscape:pageshadow="2"
     inkscape:zoom="0.12374369"
     inkscape:cx="1307.0224"
     inkscape:cy="-1182.7371"
     inkscape:document-units="px"
     inkscape:current-layer="layer1"
     showgrid="false"
     inkscape:window-width="1600"
     inkscape:window-height="848"
     inkscape:window-x="-8"
     inkscape:window-y="-8"
     inkscape:window-maximized="1" />
  <metadata
     id="metadata7">
    <rdf:RDF>
      <cc:Work
         rdf:about="">
        <dc:format>image/svg+xml</dc:format>
        <dc:type
           rdf:resource="http://purl.org/dc/dcmitype/StillImage" />
        <dc:title></dc:title>
      </cc:Work>
    </rdf:RDF>
  </metadata>
  <g
     inkscape:label="Layer 1"
     inkscape:groupmode="layer"
     id="layer1"
     transform="translate(0,-252.36218)">
    <g
       transform="translate(-21.876727,21.876727)"
       id="g3768">
      <path
         style="fill:none;stroke:#ffffff;stroke-width:59.81228256;stroke-linecap:round;stroke-linejoin:round;stroke-miterlimit:4;stroke-opacity:1;stroke-dasharray:none"
         d="m 580.36026,554.25611 c 0,0 -34.73403,356.71385 -211.3766,352.90858 -103.20797,-2.22333 -107.7737,-182.69115 -107.7737,-182.69115"
         id="path3770"
         inkscape:connector-curvature="0"
         sodipodi:nodetypes="csc" />
      <path
         inkscape:connector-curvature="0"
         id="path3772"
         d="m 487.68194,518.28967 c 0,0 32.42846,-37.86892 68.30677,-47.08027 35.8783,-9.21136 68.30677,-5.11742 68.30677,-5.11742"
         style="fill:none;stroke:#ffffff;stroke-width:30.5295372;stroke-linecap:round;stroke-linejoin:round;stroke-miterlimit:4;stroke-opacity:1;stroke-dasharray:none" />
      <path
         style="fill:none;stroke:#ffffff;stroke-width:45.75735474;stroke-linecap:round;stroke-linejoin:round;stroke-miterlimit:4;stroke-opacity:1;stroke-dasharray:none"
         d="m 415.38046,421.52117 c 0,0 48.60345,-56.75753 102.37748,-70.56341 53.77403,-13.8059 102.37749,-7.66994 102.37749,-7.66994"
         id="path3774"
         inkscape:connector-curvature="0" />
    </g>
    <g
       id="g3763"
       transform="translate(-93.305298,893.3053)">
      <path
         style="font-size:medium;font-style:normal;font-variant:normal;font-weight:normal;font-stretch:normal;text-indent:0;text-align:start;text-decoration:none;line-height:normal;letter-spacing:normal;word-spacing:normal;text-transform:none;direction:ltr;block-progression:tb;writing-mode:lr-tb;text-anchor:start;baseline-shift:baseline;color:#000000;fill:#ffffff;fill-opacity:1;stroke:none;stroke-width:59.81228256;marker:none;visibility:visible;display:inline;overflow:visible;enable-background:accumulate;font-family:Sans;-inkscape-font-specification:Sans"
         d="M 496.1875 960 C 475.77586 960.17241 448.03586 962.23117 418.75 969.75 C 353.56343 986.48592 304.6875 1047.5625 304.6875 1047.5625 A 22.882774 22.882774 0 1 0 339.4375 1077.3438 C 339.4375 1077.3438 387.76351 1024.9383 430.125 1014.0625 C 479.10135 1001.4884 523.96875 1006.9375 523.96875 1006.9375 A 22.88248 22.88248 0 1 0 529.6875 961.53125 C 529.6875 961.53125 516.59914 959.82759 496.1875 960 z M 510.53125 1090.875 C 496.9125 1090.99 478.41467 1092.3584 458.875 1097.375 C 415.38218 1108.5413 382.78125 1149.3125 382.78125 1149.3125 A 15.266295 15.266295 0 1 0 405.96875 1169.1562 C 405.96875 1169.1562 438.20495 1134.1939 466.46875 1126.9375 C 499.14601 1118.548 529.0625 1122.1875 529.0625 1122.1875 A 15.277615 15.277615 0 1 0 532.90625 1091.875 C 532.90625 1091.875 524.15 1090.76 510.53125 1090.875 z M 486.5625 1164.875 A 29.909132 29.909132 0 0 0 457.28125 1192.2812 C 457.28125 1192.2812 448.64513 1278.7952 419.34375 1363.2812 C 404.69306 1405.5243 384.72804 1446.7438 360.46875 1475.1562 C 336.20946 1503.5687 310.39358 1518.9217 276.3125 1518.1875 C 259.21526 1517.8192 248.70839 1511.5249 237.875 1499.0312 C 227.04161 1486.5376 217.91844 1467.3375 211.65625 1447.0938 C 199.13187 1406.6063 197.78125 1364.6562 197.78125 1364.6562 A 29.909132 29.909132 0 1 0 138 1366.1562 C 138 1366.1562 138.93952 1414.4478 154.5 1464.75 C 162.28024 1489.9011 173.63758 1516.2494 192.6875 1538.2188 C 211.73742 1560.1881 240.5245 1577.2567 275.03125 1578 C 329.27145 1579.1685 374.03469 1551.4012 405.96875 1514 C 437.90281 1476.5988 459.73061 1429.3348 475.84375 1382.875 C 508.07003 1289.9554 516.8125 1198.0938 516.8125 1198.0938 A 29.909132 29.909132 0 0 0 486.5625 1164.875 z "
         transform="translate(93.305298,-640.94312)"
         id="path3792" />
      <path
         style="font-size:medium;font-style:normal;font-variant:normal;font-weight:normal;font-stretch:normal;text-indent:0;text-align:start;text-decoration:none;line-height:normal;letter-spacing:normal;word-spacing:normal;text-transform:none;direction:ltr;block-progression:tb;writing-mode:lr-tb;text-anchor:start;baseline-shift:baseline;color:#000000;fill:#ffffff;fill-opacity:1;stroke:none;stroke-width:73.80000305;marker:none;visibility:visible;display:inline;overflow:visible;enable-background:accumulate;font-family:Sans;-inkscape-font-specification:Sans"
         d="m 1340.2651,699.07925 a 22.802279,22.802279 0 0 0 -10.25,2.8124 c -37.2193,19.8504 -71.1379,59.6936 -98.6562,95 -7.1393,9.1599 -13.7425,18.0261 -19.625,26.1563 -12.0481,-23.2563 -29.6441,-40.961 -47.2188,-54.5 -41.1333,-31.6878 -86.625,-43.6875 -86.625,-43.6875 a 36.903692,36.903692 0 0 0 -10.9062,-1.5 36.903692,36.903692 0 0 0 -8.875,72.5938 c 0,0 34.323,10.2224 61.375,31.0624 13.526,10.4201 24.1335,22.7004 29.2812,35.6563 5.1477,12.9559 6.7575,27.1789 -2.0624,50.1875 -21.5122,56.1186 -69.9492,146.34225 -124.4688,203.31255 -27.25985,28.4851 -55.75651,47.9547 -79.53128,54.3125 -23.77477,6.3578 -42.7745,4.1369 -69.09375,-18.0625 a 36.903692,36.903692 0 1 0 -47.59375,56.4063 c 41.46033,34.9703 91.95219,44.681 135.75,32.9687 43.79778,-11.7123 80.96178,-40.299 113.78128,-74.5937 65.6388,-68.5892 115.1076,-162.8378 140.0625,-227.93765 7.4985,-19.5613 10.8268,-38.8922 10.6562,-57.0937 6.6064,-10.0559 21.773,-32.5413 41.0313,-57.25 26.0198,-33.3839 60.7976,-70.3066 84.1875,-82.7813 a 22.802279,22.802279 0 0 0 -11.2188,-43.0624 z"
         id="path3798"
         inkscape:connector-curvature="0" />
    </g>
    <text
       xml:space="preserve"
       style="font-size:598.78509521px;font-style:normal;font-weight:normal;line-height:125%;letter-spacing:0px;word-spacing:0px;fill:#ffffff;fill-opacity:1;stroke:none;font-family:Sans"
       x="532.58801"
       y="1736.5492"
       id="text3776"
       sodipodi:linespacing="125%"><tspan
         sodipodi:role="line"
         id="tspan3778"
         x="532.58801"
         y="1736.5492"
         style="font-style:oblique;font-variant:normal;font-weight:bold;font-stretch:normal;fill:#ffffff;fill-opacity:1;font-family:Arial;-inkscape-font-specification:Arial Bold Oblique">o</tspan></text>
  </g>
</svg>
