<?xml version="1.0" encoding="UTF-8" standalone="no"?>
<!-- Created with Inkscape (http://www.inkscape.org/) -->

<svg
   xmlns:dc="http://purl.org/dc/elements/1.1/"
   xmlns:cc="http://creativecommons.org/ns#"
   xmlns:rdf="http://www.w3.org/1999/02/22-rdf-syntax-ns#"
   xmlns:svg="http://www.w3.org/2000/svg"
   xmlns="http://www.w3.org/2000/svg"
   xmlns:sodipodi="http://sodipodi.sourceforge.net/DTD/sodipodi-0.dtd"
   xmlns:inkscape="http://www.inkscape.org/namespaces/inkscape"
   width="800"
   height="800"
   id="svg2"
   version="1.1"
   inkscape:version="0.48.4 r9939"
   sodipodi:docname="logo_banner.svg"
   inkscape:export-filename="C:\Users\alex\Documents\joy\app\webroot\img\logo64.png"
   inkscape:export-xdpi="7.1999998"
   inkscape:export-ydpi="7.1999998">
  <defs
     id="defs4" />
  <sodipodi:namedview
     id="base"
     pagecolor="#77a800"
     bordercolor="#666666"
     borderopacity="1.0"
     inkscape:pageopacity="0"
     inkscape:pageshadow="2"
     inkscape:zoom="1.4142136"
     inkscape:cx="200.46595"
     inkscape:cy="575.68543"
     inkscape:document-units="px"
     inkscape:current-layer="g3763"
     showgrid="false"
     inkscape:window-width="1600"
     inkscape:window-height="848"
     inkscape:window-x="-8"
     inkscape:window-y="-8"
     inkscape:window-maximized="1"
     showguides="true"
     inkscape:guide-bbox="true" />
  <metadata
     id="metadata7">
    <rdf:RDF>
      <cc:Work
         rdf:about="">
        <dc:format>image/svg+xml</dc:format>
        <dc:type
           rdf:resource="http://purl.org/dc/dcmitype/StillImage" />
        <dc:title></dc:title>
      </cc:Work>
    </rdf:RDF>
  </metadata>
  <g
     inkscape:label="Layer 1"
     inkscape:groupmode="layer"
     id="layer1"
     transform="translate(0,-252.36218)">
    <g
       id="g3763"
       transform="matrix(0.16440267,0,0,0.16440267,-3.545458,229.98928)"
       style="fill:#77a800;fill-opacity:1">
      <path
         style="font-size:medium;font-style:normal;font-variant:normal;font-weight:normal;font-stretch:normal;text-indent:0;text-align:start;text-decoration:none;line-height:normal;letter-spacing:normal;word-spacing:normal;text-transform:none;direction:ltr;block-progression:tb;writing-mode:lr-tb;text-anchor:start;baseline-shift:baseline;color:#000000;fill:#77a800;fill-opacity:1;stroke:none;stroke-width:59.81228256;marker:none;visibility:visible;display:inline;overflow:visible;enable-background:accumulate;font-family:Sans;-inkscape-font-specification:Sans"
         d="m 496.1875,960 c -20.41164,0.17241 -48.15164,2.23117 -77.4375,9.75 -65.18657,16.73592 -114.0625,77.8125 -114.0625,77.8125 a 22.88279,22.88279 0 1 0 34.75,29.7813 c 0,0 48.32601,-52.4055 90.6875,-63.2813 48.97635,-12.5741 93.84375,-7.125 93.84375,-7.125 a 22.88248,22.88248 0 1 0 5.71875,-45.40625 c 0,0 -13.08836,-1.70366 -33.5,-1.53125 z m 14.34375,130.875 c -13.61875,0.115 -32.11658,1.4834 -51.65625,6.5 -43.49282,11.1663 -76.09375,51.9375 -76.09375,51.9375 a 15.266295,15.266295 0 1 0 23.1875,19.8437 c 0,0 32.2362,-34.9623 60.5,-42.2187 32.67726,-8.3895 62.59375,-4.75 62.59375,-4.75 a 15.277615,15.277615 0 1 0 3.84375,-30.3125 c 0,0 -8.75625,-1.115 -22.375,-1 z m -23.96875,74 a 29.909132,29.909132 0 0 0 -29.28125,27.4062 c 0,0 -8.63612,86.514 -37.9375,171 -14.65069,42.2431 -34.61571,83.4626 -58.875,111.875 -24.25929,28.4125 -50.07517,43.7655 -84.15625,43.0313 -17.09724,-0.3683 -27.60411,-6.6626 -38.4375,-19.1563 -10.83339,-12.4936 -19.95656,-31.6937 -26.21875,-51.9374 -12.52438,-40.4875 -13.875,-82.4376 -13.875,-82.4376 a 29.909132,29.909132 0 1 0 -59.78125,1.5 c 0,0 0.93952,48.2916 16.5,98.5938 7.78024,25.1511 19.13758,51.4994 38.1875,73.4688 19.04992,21.9693 47.837,39.0379 82.34375,39.7812 54.2402,1.1685 99.00344,-26.5988 130.9375,-64 31.93406,-37.4012 53.76186,-84.6652 69.875,-131.125 32.22628,-92.9196 40.96875,-184.7812 40.96875,-184.7812 a 29.909132,29.909132 0 0 0 -30.25,-33.2188 z"
         id="path3792"
         inkscape:connector-curvature="0"
         transform="translate(93.305298,-640.94312)" />
      <path
         inkscape:connector-curvature="0"
         id="path3795"
         d="m 1279.4389,689.95531 a 22.802279,22.802279 0 0 0 -10.25,2.8124 c -37.2193,19.8504 -71.1379,59.6936 -98.6562,95 -7.1393,9.1599 -13.7425,18.0261 -19.625,26.1563 -12.0481,-23.2563 -29.6441,-40.961 -47.2188,-54.5 -41.1333,-31.6878 -86.625,-43.6875 -86.625,-43.6875 a 36.903692,36.903692 0 0 0 -10.9062,-1.5 36.903692,36.903692 0 0 0 -8.87504,72.5938 c 0,0 34.32304,10.2224 61.37504,31.0624 13.526,10.4201 24.1335,22.7004 29.2812,35.6563 5.1477,12.9559 6.7575,27.1789 -2.0624,50.1875 -21.5122,56.1186 -69.9492,146.34219 -124.46884,203.31249 -27.2599,28.4851 -55.75653,47.9547 -79.5313,54.3125 -23.77477,6.3578 -42.7745,4.1369 -69.09375,-18.0625 a 36.903692,36.903692 0 1 0 -47.59375,56.4063 c 41.46033,34.9703 91.95219,44.681 135.75,32.9687 43.7978,-11.7123 80.9618,-40.299 113.78134,-74.5937 65.6388,-68.5892 115.1076,-162.83778 140.0625,-227.93759 7.4985,-19.5613 10.8268,-38.8922 10.6562,-57.0937 6.6064,-10.0559 21.773,-32.5413 41.0313,-57.25 26.0198,-33.3839 60.7976,-70.3066 84.1875,-82.7813 a 22.802279,22.802279 0 0 0 -11.2188,-43.0624 z"
         style="font-size:medium;font-style:normal;font-variant:normal;font-weight:normal;font-stretch:normal;text-indent:0;text-align:start;text-decoration:none;line-height:normal;letter-spacing:normal;word-spacing:normal;text-transform:none;direction:ltr;block-progression:tb;writing-mode:lr-tb;text-anchor:start;baseline-shift:baseline;color:#000000;fill:#77a800;fill-opacity:1;stroke:none;stroke-width:73.80000305;marker:none;visibility:visible;display:inline;overflow:visible;enable-background:accumulate;font-family:Sans;-inkscape-font-specification:Sans" />
      <path
         style="font-size:medium;font-style:normal;font-variant:normal;font-weight:normal;font-stretch:normal;text-indent:0;text-align:start;text-decoration:none;line-height:normal;letter-spacing:normal;word-spacing:normal;text-transform:none;direction:ltr;block-progression:tb;writing-mode:lr-tb;text-anchor:start;baseline-shift:baseline;color:#000000;fill:#77a800;fill-opacity:1;stroke:none;stroke-width:73.80000305;marker:none;visibility:visible;display:inline;overflow:visible;enable-background:accumulate;font-family:Sans;-inkscape-font-specification:Sans"
         d="m 2051.9323,726.45106 a 22.802279,22.802279 0 0 0 -10.25,2.8124 c -37.2193,19.8504 -71.1379,59.6936 -98.6562,95 -7.1393,9.1599 -13.7425,18.0261 -19.625,26.1563 -12.0481,-23.2563 -29.6441,-40.961 -47.2188,-54.5 -41.1333,-31.6878 -86.625,-43.6875 -86.625,-43.6875 a 36.903692,36.903692 0 0 0 -10.9062,-1.5 36.903692,36.903692 0 0 0 -8.875,72.5938 c 0,0 34.323,10.2224 61.375,31.0624 13.526,10.4201 24.1335,22.7004 29.2812,35.6563 5.1477,12.9559 6.7575,27.1789 -2.0624,50.1875 -21.5122,56.11861 -69.9492,146.34224 -124.4688,203.31254 -27.2598,28.4851 -55.7565,47.9547 -79.5312,54.3125 -23.7748,6.3578 -42.7745,4.1369 -69.0938,-18.0625 a 36.903692,36.903692 0 1 0 -47.5937,56.4063 c 41.4603,34.9703 91.9521,44.681 135.75,32.9687 43.7977,-11.7123 80.9617,-40.299 113.7812,-74.5937 65.6388,-68.5892 115.1076,-162.8378 140.0625,-227.93764 7.4985,-19.5613 10.8268,-38.8922 10.6562,-57.0937 6.6064,-10.0559 21.773,-32.5413 41.0313,-57.25 26.0198,-33.3839 60.7976,-70.3066 84.1875,-82.7813 a 22.802279,22.802279 0 0 0 -11.2188,-43.0624 z"
         id="path3798"
         inkscape:connector-curvature="0" />
      <path
         style="fill:none;stroke:#77a800;stroke-width:51.09405899;stroke-linecap:round;stroke-linejoin:round;stroke-miterlimit:4;stroke-opacity:1;stroke-dasharray:none"
         d="m 1341.4956,902.4969 60.8263,-261.55293"
         id="path3787"
         inkscape:connector-curvature="0" />
      <path
         style="fill:none;stroke:#77a800;stroke-width:51.09405899;stroke-linecap:round;stroke-linejoin:round;stroke-miterlimit:4;stroke-opacity:1;stroke-dasharray:none"
         d="m 1855.4775,616.61347 c 0,0 -33.5315,-77.04977 -139.9003,-82.11546 -100.3386,-4.7785 -158.1483,215.93324 -176.3962,349.75101"
         id="path3789"
         inkscape:connector-curvature="0"
         sodipodi:nodetypes="csc" />
      <path
         style="fill:none;stroke:#77a800;stroke-width:51.09405899;stroke-linecap:round;stroke-linejoin:round;stroke-miterlimit:4;stroke-opacity:1;stroke-dasharray:none"
         d="m 1511.8092,640.94397 194.644,0"
         id="path3793"
         inkscape:connector-curvature="0" />
    </g>
    <text
       xml:space="preserve"
       style="font-size:98.44187164px;font-style:normal;font-weight:normal;line-height:125%;letter-spacing:0px;word-spacing:0px;fill:#77a800;fill-opacity:1;stroke:none;font-family:Sans"
       x="94.381622"
       y="382.24942"
       id="text3776"
       sodipodi:linespacing="125%"><tspan
         sodipodi:role="line"
         id="tspan3778"
         x="94.381622"
         y="382.24942"
         style="font-style:oblique;font-variant:normal;font-weight:bold;font-stretch:normal;fill:#77a800;fill-opacity:1;font-family:Arial;-inkscape-font-specification:Arial Bold Oblique">o</tspan></text>
  </g>
</svg>
