<?xml version="1.0" encoding="UTF-8" standalone="no"?>
<!-- Created with Inkscape (http://www.inkscape.org/) -->

<svg
   xmlns:dc="http://purl.org/dc/elements/1.1/"
   xmlns:cc="http://creativecommons.org/ns#"
   xmlns:rdf="http://www.w3.org/1999/02/22-rdf-syntax-ns#"
   xmlns:svg="http://www.w3.org/2000/svg"
   xmlns="http://www.w3.org/2000/svg"
   xmlns:xlink="http://www.w3.org/1999/xlink"
   xmlns:sodipodi="http://sodipodi.sourceforge.net/DTD/sodipodi-0.dtd"
   xmlns:inkscape="http://www.inkscape.org/namespaces/inkscape"
   width="32"
   height="32"
   id="svg2"
   version="1.1"
   inkscape:version="0.48.4 r9939"
   sodipodi:docname="logo_banner.svg"
   inkscape:export-filename="C:\Users\alex\Documents\joy\app\webroot\img\joyify.png"
   inkscape:export-xdpi="90"
   inkscape:export-ydpi="90">
  <defs
     id="defs4">
    <linearGradient
       id="linearGradient3888">
      <stop
         style="stop-color:#a9ef00;stop-opacity:1;"
         offset="0"
         id="stop3890" />
      <stop
         style="stop-color:#77a800;stop-opacity:1;"
         offset="1"
         id="stop3892" />
    </linearGradient>
    <linearGradient
       inkscape:collect="always"
       id="linearGradient3864">
      <stop
         style="stop-color:#c9ff54;stop-opacity:1;"
         offset="0"
         id="stop3866" />
      <stop
         style="stop-color:#c9ff54;stop-opacity:0;"
         offset="1"
         id="stop3868" />
    </linearGradient>
    <linearGradient
       id="linearGradient3837">
      <stop
         style="stop-color:#939393;stop-opacity:1;"
         offset="0"
         id="stop3839" />
      <stop
         style="stop-color:#111800;stop-opacity:0;"
         offset="1"
         id="stop3841" />
    </linearGradient>
    <linearGradient
       id="linearGradient3825">
      <stop
         style="stop-color:#939393;stop-opacity:1;"
         offset="0"
         id="stop3827" />
      <stop
         style="stop-color:#9c9c9c;stop-opacity:0;"
         offset="1"
         id="stop3829" />
    </linearGradient>
    <linearGradient
       id="linearGradient3807">
      <stop
         style="stop-color:#cfff5a;stop-opacity:0.5045045;"
         offset="0"
         id="stop3809" />
      <stop
         style="stop-color:#c4ff35;stop-opacity:0;"
         offset="1"
         id="stop3811" />
    </linearGradient>
    <linearGradient
       inkscape:collect="always"
       xlink:href="#linearGradient3807"
       id="linearGradient3813"
       x1="27.6875"
       y1="12.505206"
       x2="27.6875"
       y2="6.4999999"
       gradientUnits="userSpaceOnUse"
       gradientTransform="matrix(1.1040189,0,0,1.4759036,1.7199764,1020.7362)" />
    <radialGradient
       inkscape:collect="always"
       xlink:href="#linearGradient3825"
       id="radialGradient3831"
       cx="15.733126"
       cy="28.110912"
       fx="15.733126"
       fy="28.110912"
       r="12.904698"
       gradientTransform="matrix(1,0,0,0.27397261,0,20.409292)"
       gradientUnits="userSpaceOnUse" />
    <radialGradient
       inkscape:collect="always"
       xlink:href="#linearGradient3837"
       id="radialGradient3843"
       cx="16.8125"
       cy="31.75"
       fx="16.8125"
       fy="31.75"
       r="13.3125"
       gradientTransform="matrix(1,0,0,0.14084507,0,27.278169)"
       gradientUnits="userSpaceOnUse" />
    <linearGradient
       inkscape:collect="always"
       xlink:href="#linearGradient3864"
       id="linearGradient3870"
       x1="20.603485"
       y1="1021.862"
       x2="20.603485"
       y2="1041.514"
       gradientUnits="userSpaceOnUse" />
    <radialGradient
       inkscape:collect="always"
       xlink:href="#linearGradient3888"
       id="radialGradient3894"
       cx="14.096774"
       cy="1027.4594"
       fx="14.096774"
       fy="1027.4594"
       r="13.971774"
       gradientUnits="userSpaceOnUse"
       gradientTransform="matrix(1.430137,0,0,1.430137,-6.0635442,-441.94829)" />
    <radialGradient
       inkscape:collect="always"
       xlink:href="#linearGradient3825"
       id="radialGradient3898"
       gradientUnits="userSpaceOnUse"
       gradientTransform="matrix(1,0,0,0.27397261,0,20.409292)"
       cx="15.733126"
       cy="28.110912"
       fx="15.733126"
       fy="28.110912"
       r="12.904698" />
  </defs>
  <sodipodi:namedview
     id="base"
     pagecolor="#77a800"
     bordercolor="#666666"
     borderopacity="1.0"
     inkscape:pageopacity="0"
     inkscape:pageshadow="2"
     inkscape:zoom="15.999999"
     inkscape:cx="14.519785"
     inkscape:cy="16.19895"
     inkscape:document-units="px"
     inkscape:current-layer="layer1"
     showgrid="false"
     inkscape:window-width="1600"
     inkscape:window-height="848"
     inkscape:window-x="-8"
     inkscape:window-y="-8"
     inkscape:window-maximized="1"
     showguides="true"
     inkscape:guide-bbox="true" />
  <metadata
     id="metadata7">
    <rdf:RDF>
      <cc:Work
         rdf:about="">
        <dc:format>image/svg+xml</dc:format>
        <dc:type
           rdf:resource="http://purl.org/dc/dcmitype/StillImage" />
        <dc:title></dc:title>
      </cc:Work>
    </rdf:RDF>
  </metadata>
  <g
     inkscape:label="Layer 1"
     inkscape:groupmode="layer"
     id="layer1"
     transform="translate(0,-1020.3622)">
    <path
       sodipodi:type="arc"
       style="fill:url(#radialGradient3843);fill-opacity:1;stroke:none"
       id="path3835"
       sodipodi:cx="16.8125"
       sodipodi:cy="31.75"
       sodipodi:rx="13.3125"
       sodipodi:ry="1.875"
       d="m 30.125,31.75 c 0,1.035534 -5.960209,1.875 -13.3125,1.875 C 9.4602093,33.625 3.5,32.785534 3.5,31.75 c 0,-1.035534 5.9602093,-1.875 13.3125,-1.875 7.352291,0 13.3125,0.839466 13.3125,1.875 z"
       transform="matrix(0.5399061,0,0,1,-1.1396714,1018.4872)" />
    <path
       transform="matrix(0.63191701,0,0,0.68180195,13.166096,1030.307)"
       d="m 28.637824,28.110912 c 0,1.952622 -5.77763,3.535534 -12.904698,3.535534 -7.1270684,0 -12.9046987,-1.582912 -12.9046987,-3.535534 0,-1.952621 5.7776303,-3.535534 12.9046987,-3.535534 7.127068,0 12.904698,1.582913 12.904698,3.535534 z"
       sodipodi:ry="3.5355339"
       sodipodi:rx="12.904698"
       sodipodi:cy="28.110912"
       sodipodi:cx="15.733126"
       id="path3896"
       style="fill:url(#radialGradient3898);fill-opacity:1;stroke:none"
       sodipodi:type="arc" />
    <g
       id="g3819"
       transform="translate(2,2.0000174)">
      <rect
         ry="2.75"
         style="fill:#77a800;fill-opacity:1;stroke:#507500;stroke-opacity:1;stroke-width:0.5;stroke-miterlimit:4;stroke-dasharray:none"
         id="rect3803"
         width="29"
         height="29"
         x="-1"
         y="1019.3622" />
      <rect
         ry="1.3920048"
         y="1020.2094"
         x="-0.028225809"
         height="27"
         width="27"
         id="rect3801"
         style="fill:url(#radialGradient3894);fill-opacity:1;stroke:url(#linearGradient3870);stroke-width:0.94354837999999996;stroke-opacity:1" />
    </g>
    <g
       id="g3763"
       transform="matrix(0.00622949,0,0,0.00622949,2.3307345,1020.7766)"
       style="fill:#80ff00;fill-opacity:1">
      <path
         style="font-size:medium;font-style:normal;font-variant:normal;font-weight:normal;font-stretch:normal;text-indent:0;text-align:start;text-decoration:none;line-height:normal;letter-spacing:normal;word-spacing:normal;text-transform:none;direction:ltr;block-progression:tb;writing-mode:lr-tb;text-anchor:start;baseline-shift:baseline;color:#000000;fill:#80ff00;fill-opacity:1;stroke:none;stroke-width:59.81228256000000000;marker:none;visibility:visible;display:inline;overflow:visible;enable-background:accumulate;font-family:Sans;-inkscape-font-specification:Sans"
         d="m 2943.9068,708.4022 c -115.7481,0.97769 -273.0534,12.6523 -439.125,55.28935 -369.6533,94.90442 -646.8145,441.25155 -646.8145,441.25155 a 129.76149,129.76149 0 0 0 197.0569,168.8809 c 0,0 274.0423,-297.176 514.2618,-358.8495 277.7306,-71.30393 532.1603,-40.40371 532.1603,-40.40371 a 129.75973,129.75973 0 1 0 32.429,-257.48532 c 0,0 -74.2199,-9.66095 -189.9685,-8.68327 z m 81.3394,742.1532 c -77.2282,0.6521 -182.1237,8.4119 -292.9275,36.8595 -246.6347,63.3208 -431.5047,294.5221 -431.5047,294.5221 a 86.570615,86.570615 0 1 0 131.4894,112.5278 c 0,0 182.8019,-198.2608 343.0775,-239.4097 185.3026,-47.5744 354.9502,-26.9359 354.9502,-26.9359 a 86.634824,86.634824 0 0 0 21.7971,-171.8931 c 0,0 -49.6544,-6.3229 -126.882,-5.6707 z m -135.9199,419.6319 a 169.60578,169.60578 0 0 0 -166.045,155.4124 c 0,0 -48.9728,490.5954 -215.1323,969.6904 -83.0797,239.548 -196.2953,473.2915 -333.8626,634.4098 -137.5672,161.1188 -283.9615,248.1811 -477.2253,244.0177 -96.9531,-2.0885 -156.5346,-37.7816 -217.9676,-108.6297 -61.433,-70.8475 -113.1675,-179.7255 -148.6785,-294.5215 -71.0221,-229.5926 -78.681,-467.4791 -78.681,-467.4791 a 169.60578,169.60578 0 1 0 -339.00169,8.506 c 0,0 5.32774,273.8473 93.56659,559.0961 44.1194,142.6244 108.5235,292.0378 216.5499,416.6197 108.0265,124.5814 271.2692,221.3723 466.947,225.5874 307.58,6.6262 561.4188,-150.8339 742.5076,-362.925 181.0882,-212.091 304.8671,-480.1111 396.2403,-743.5708 182.7458,-526.9194 232.3213,-1047.8394 232.3213,-1047.8394 a 169.60578,169.60578 0 0 0 -171.5387,-188.374 z"
         id="path3792"
         inkscape:connector-curvature="0" />
    </g>
    <g
       style="fill:#ffffff;fill-opacity:1"
       transform="matrix(0.00622949,0,0,0.00622949,2.3307345,1020.1579)"
       id="g3055">
      <path
         inkscape:connector-curvature="0"
         id="path3057"
         d="m 2943.9068,708.4022 c -115.7481,0.97769 -273.0534,12.6523 -439.125,55.28935 -369.6533,94.90442 -646.8145,441.25155 -646.8145,441.25155 a 129.76149,129.76149 0 0 0 197.0569,168.8809 c 0,0 274.0423,-297.176 514.2618,-358.8495 277.7306,-71.30393 532.1603,-40.40371 532.1603,-40.40371 a 129.75973,129.75973 0 1 0 32.429,-257.48532 c 0,0 -74.2199,-9.66095 -189.9685,-8.68327 z m 81.3394,742.1532 c -77.2282,0.6521 -182.1237,8.4119 -292.9275,36.8595 -246.6347,63.3208 -431.5047,294.5221 -431.5047,294.5221 a 86.570615,86.570615 0 1 0 131.4894,112.5278 c 0,0 182.8019,-198.2608 343.0775,-239.4097 185.3026,-47.5744 354.9502,-26.9359 354.9502,-26.9359 a 86.634824,86.634824 0 0 0 21.7971,-171.8931 c 0,0 -49.6544,-6.3229 -126.882,-5.6707 z m -135.9199,419.6319 a 169.60578,169.60578 0 0 0 -166.045,155.4124 c 0,0 -48.9728,490.5954 -215.1323,969.6904 -83.0797,239.548 -196.2953,473.2915 -333.8626,634.4098 -137.5672,161.1188 -283.9615,248.1811 -477.2253,244.0177 -96.9531,-2.0885 -156.5346,-37.7816 -217.9676,-108.6297 -61.433,-70.8475 -113.1675,-179.7255 -148.6785,-294.5215 -71.0221,-229.5926 -78.681,-467.4791 -78.681,-467.4791 a 169.60578,169.60578 0 1 0 -339.00169,8.506 c 0,0 5.32774,273.8473 93.56659,559.0961 44.1194,142.6244 108.5235,292.0378 216.5499,416.6197 108.0265,124.5814 271.2692,221.3723 466.947,225.5874 307.58,6.6262 561.4188,-150.8339 742.5076,-362.925 181.0882,-212.091 304.8671,-480.1111 396.2403,-743.5708 182.7458,-526.9194 232.3213,-1047.8394 232.3213,-1047.8394 a 169.60578,169.60578 0 0 0 -171.5387,-188.374 z"
         style="font-size:medium;font-style:normal;font-variant:normal;font-weight:normal;font-stretch:normal;text-indent:0;text-align:start;text-decoration:none;line-height:normal;letter-spacing:normal;word-spacing:normal;text-transform:none;direction:ltr;block-progression:tb;writing-mode:lr-tb;text-anchor:start;baseline-shift:baseline;color:#000000;fill:#4b7700;fill-opacity:1;stroke:none;stroke-width:59.81228256;marker:none;visibility:visible;display:inline;overflow:visible;enable-background:accumulate;font-family:Sans;-inkscape-font-specification:Sans" />
    </g>
    <rect
       style="fill:url(#linearGradient3813);fill-opacity:1;stroke:none"
       id="rect3805"
       width="27.930456"
       height="15.563893"
       x="1.3499999"
       y="1022.1733"
       ry="2.375" />
    <rect
       style="fill:#77a800;fill-opacity:1;stroke:none"
       id="rect3817"
       width="0.26516503"
       height="0.35355338"
       x="29.521708"
       y="0.1801948"
       transform="translate(0,1020.3622)"
       ry="0.13258252" />
  </g>
</svg>
